<svg width="64" height="64" viewBox="0 0 64 64" fill="none" xmlns="http://www.w3.org/2000/svg">
  <rect x="8" y="10" width="48" height="44" rx="10" fill="url(#paint0_linear)" />
  <rect x="16" y="18" width="32" height="12" rx="6" fill="white" opacity="0.85" />
  <rect x="16" y="34" width="18" height="12" rx="6" fill="white" opacity="0.65" />
  <path
    d="M38 34H48C50.2091 34 52 35.7909 52 38V44C52 46.2091 50.2091 48 48 48H38C35.7909 48 34 46.2091 34 44V38C34 35.7909 35.7909 34 38 34Z"
    fill="#34D399"
    opacity="0.9"
  />
  <path
    d="M40.5 41.5L43 44L47.5 39.5"
    stroke="white"
    stroke-width="2.4"
    stroke-linecap="round"
    stroke-linejoin="round"
  />
  <circle cx="24" cy="24" r="3" fill="#4C1D95" opacity="0.8" />
  <circle cx="34" cy="24" r="3" fill="#4C1D95" opacity="0.6" />
  <defs>
    <linearGradient id="paint0_linear" x1="8" y1="10" x2="56" y2="54" gradientUnits="userSpaceOnUse">
      <stop stop-color="#EEF2FF" />
      <stop offset="1" stop-color="#C7D2FE" />
    </linearGradient>
  </defs>
</svg>
